<?xml version="1.0" encoding="iso-8859-1"?>
<!-- Generator: Adobe Illustrator 19.0.0, SVG Export Plug-In . SVG Version: 6.00 Build 0)  -->
<svg version="1.1" id="Capa_1" xmlns="http://www.w3.org/2000/svg" xmlns:xlink="http://www.w3.org/1999/xlink" x="0px" y="0px"
	 viewBox="0 0 512 512" style="enable-background:new 0 0 512 512;" xml:space="preserve">
<path style="fill:#F2F2F2;" d="M458.667,66.133h-409.6c-11.733,0-21.333,9.6-21.333,21.333v316.8c0,11.733,9.6,21.333,21.333,21.333
	h409.6C470.4,425.6,480,416,480,404.267v-316.8C480,75.733,470.4,66.133,458.667,66.133z"/>
<rect x="62.933" y="104.533" style="fill:#84DBFF;" width="382.933" height="266.667"/>
<path style="fill:#40596B;" d="M512,397.867c0,26.667-21.333,48-48,48H48c-13.867,0-25.6-5.333-34.133-13.867S0,410.667,0,397.867
	h189.867l9.6,16H313.6l9.6-16H512z"/>
<circle style="fill:#FF7058;" cx="426.667" cy="422.4" r="10.667"/>
<circle style="fill:#FFD15C;" cx="464" cy="422.4" r="10.667"/>
<g>
	<circle style="fill:#FFFFFF;" cx="253.867" cy="299.733" r="29.867"/>
	<path style="fill:#FFFFFF;" d="M352,204.8L352,204.8c-54.4-54.4-141.867-54.4-196.267,0l0,0c-3.2,3.2-9.6,3.2-12.8,0l0,0
		c-3.2-3.2-3.2-9.6,0-12.8l0,0c60.8-60.8,160-60.8,221.867,0l0,0c3.2,3.2,3.2,9.6,0,12.8l0,0C361.6,208,356.267,208,352,204.8z"/>
	<path style="fill:#FFFFFF;" d="M324.267,233.6L324.267,233.6c-38.4-38.4-101.333-38.4-139.733,0l0,0c-3.2,3.2-9.6,3.2-12.8,0l0,0
		c-3.2-3.2-3.2-9.6,0-12.8l0,0C217.6,174.933,291.2,174.933,336,220.8l0,0c3.2,3.2,3.2,9.6,0,12.8l0,0
		C332.8,236.8,327.467,236.8,324.267,233.6z"/>
	<path style="fill:#FFFFFF;" d="M295.467,261.333L295.467,261.333c-22.4-22.4-59.733-22.4-82.133,0l0,0c-3.2,3.2-9.6,3.2-12.8,0l0,0
		c-3.2-3.2-3.2-9.6,0-12.8l0,0c29.867-29.867,77.867-29.867,107.733,0l0,0c3.2,3.2,3.2,9.6,0,12.8l0,0
		C305.067,265.6,298.667,265.6,295.467,261.333z"/>
</g>
<g>
</g>
<g>
</g>
<g>
</g>
<g>
</g>
<g>
</g>
<g>
</g>
<g>
</g>
<g>
</g>
<g>
</g>
<g>
</g>
<g>
</g>
<g>
</g>
<g>
</g>
<g>
</g>
<g>
</g>
</svg>
